<?xml version="1.0" encoding="UTF-8" standalone="no"?>
<!-- Created with Inkscape (http://www.inkscape.org/) -->

<svg
   width="91.052406mm"
   height="17.046366mm"
   viewBox="0 0 91.052406 17.046366"
   version="1.1"
   id="svg1"
   inkscape:version="1.3 (0e150ed6c4, 2023-07-21)"
   sodipodi:docname="fei_logo.svg"
   xmlns:inkscape="http://www.inkscape.org/namespaces/inkscape"
   xmlns:sodipodi="http://sodipodi.sourceforge.net/DTD/sodipodi-0.dtd"
   xmlns="http://www.w3.org/2000/svg"
   xmlns:svg="http://www.w3.org/2000/svg">
  <sodipodi:namedview
     id="namedview1"
     pagecolor="#ffffff"
     bordercolor="#000000"
     borderopacity="0.25"
     inkscape:showpageshadow="2"
     inkscape:pageopacity="0.0"
     inkscape:pagecheckerboard="0"
     inkscape:deskcolor="#d1d1d1"
     inkscape:document-units="mm"
     inkscape:zoom="1.0449705"
     inkscape:cx="104.30916"
     inkscape:cy="225.36521"
     inkscape:window-width="2560"
     inkscape:window-height="1369"
     inkscape:window-x="-8"
     inkscape:window-y="-5"
     inkscape:window-maximized="1"
     inkscape:current-layer="layer1" />
  <defs
     id="defs1">
    <clipPath
       clipPathUnits="userSpaceOnUse"
       id="clipPath170">
      <path
         d="m 254.711,391.018 h 258.102 v 48.321 H 254.711 Z"
         transform="translate(-300.48821,-407.54841)"
         id="path170" />
    </clipPath>
    <clipPath
       clipPathUnits="userSpaceOnUse"
       id="clipPath172">
      <path
         d="m 254.711,391.018 h 258.102 v 48.321 H 254.711 Z"
         transform="translate(-325.25041,-424.33401)"
         id="path172" />
    </clipPath>
    <clipPath
       clipPathUnits="userSpaceOnUse"
       id="clipPath174">
      <path
         d="m 254.711,391.018 h 258.102 v 48.321 H 254.711 Z"
         transform="translate(-330.61041,-420.35521)"
         id="path174" />
    </clipPath>
    <clipPath
       clipPathUnits="userSpaceOnUse"
       id="clipPath176">
      <path
         d="m 254.711,391.018 h 258.102 v 48.321 H 254.711 Z"
         transform="translate(-339.38531,-421.75431)"
         id="path176" />
    </clipPath>
    <clipPath
       clipPathUnits="userSpaceOnUse"
       id="clipPath178">
      <path
         d="m 254.711,391.018 h 258.102 v 48.321 H 254.711 Z"
         transform="translate(-353.57451,-418.99261)"
         id="path178" />
    </clipPath>
    <clipPath
       clipPathUnits="userSpaceOnUse"
       id="clipPath180">
      <path
         d="m 254.711,391.018 h 258.102 v 48.321 H 254.711 Z"
         id="path180" />
    </clipPath>
    <clipPath
       clipPathUnits="userSpaceOnUse"
       id="clipPath182">
      <path
         d="m 254.711,391.018 h 258.102 v 48.321 H 254.711 Z"
         transform="translate(-367.72691,-420.66401)"
         id="path182" />
    </clipPath>
    <clipPath
       clipPathUnits="userSpaceOnUse"
       id="clipPath184">
      <path
         d="m 254.711,391.018 h 258.102 v 48.321 H 254.711 Z"
         transform="translate(-372.70451,-420.35521)"
         id="path184" />
    </clipPath>
    <clipPath
       clipPathUnits="userSpaceOnUse"
       id="clipPath186">
      <path
         d="m 254.711,391.018 h 258.102 v 48.321 H 254.711 Z"
         transform="translate(-385.07651,-425.27891)"
         id="path186" />
    </clipPath>
    <clipPath
       clipPathUnits="userSpaceOnUse"
       id="clipPath188">
      <path
         d="m 254.711,391.018 h 258.102 v 48.321 H 254.711 Z"
         id="path188" />
    </clipPath>
    <clipPath
       clipPathUnits="userSpaceOnUse"
       id="clipPath190">
      <path
         d="m 254.711,391.018 h 258.102 v 48.321 H 254.711 Z"
         transform="translate(-399.71951,-425.27891)"
         id="path190" />
    </clipPath>
    <clipPath
       clipPathUnits="userSpaceOnUse"
       id="clipPath192">
      <path
         d="m 254.711,391.018 h 258.102 v 48.321 H 254.711 Z"
         transform="translate(-410.11151,-421.75431)"
         id="path192" />
    </clipPath>
    <clipPath
       clipPathUnits="userSpaceOnUse"
       id="clipPath194">
      <path
         d="m 254.711,391.018 h 258.102 v 48.321 H 254.711 Z"
         transform="translate(-423.15601,-420.66401)"
         id="path194" />
    </clipPath>
    <clipPath
       clipPathUnits="userSpaceOnUse"
       id="clipPath196">
      <path
         d="m 254.711,391.018 h 258.102 v 48.321 H 254.711 Z"
         transform="translate(-426.86181,-418.99261)"
         id="path196" />
    </clipPath>
    <clipPath
       clipPathUnits="userSpaceOnUse"
       id="clipPath198">
      <path
         d="m 254.711,391.018 h 258.102 v 48.321 H 254.711 Z"
         transform="translate(-437.72611,-422.64441)"
         id="path198" />
    </clipPath>
    <clipPath
       clipPathUnits="userSpaceOnUse"
       id="clipPath200">
      <path
         d="m 254.711,391.018 h 258.102 v 48.321 H 254.711 Z"
         transform="translate(-447.08281,-420.66401)"
         id="path200" />
    </clipPath>
    <clipPath
       clipPathUnits="userSpaceOnUse"
       id="clipPath202">
      <path
         d="m 254.711,391.018 h 258.102 v 48.321 H 254.711 Z"
         transform="translate(-450.37051,-425.27891)"
         id="path202" />
    </clipPath>
    <clipPath
       clipPathUnits="userSpaceOnUse"
       id="clipPath204">
      <path
         d="m 254.711,391.018 h 258.102 v 48.321 H 254.711 Z"
         transform="translate(-464.66861,-422.48081)"
         id="path204" />
    </clipPath>
    <clipPath
       clipPathUnits="userSpaceOnUse"
       id="clipPath206">
      <path
         d="m 254.711,391.018 h 258.102 v 48.321 H 254.711 Z"
         transform="translate(-470.68191,-418.99261)"
         id="path206" />
    </clipPath>
    <clipPath
       clipPathUnits="userSpaceOnUse"
       id="clipPath208">
      <path
         d="m 254.711,391.018 h 258.102 v 48.321 H 254.711 Z"
         transform="translate(-481.50981,-418.99261)"
         id="path208" />
    </clipPath>
    <clipPath
       clipPathUnits="userSpaceOnUse"
       id="clipPath210">
      <path
         d="m 254.711,391.018 h 258.102 v 48.321 H 254.711 Z"
         id="path210" />
    </clipPath>
    <clipPath
       clipPathUnits="userSpaceOnUse"
       id="clipPath212">
      <path
         d="m 254.711,391.018 h 258.102 v 48.321 H 254.711 Z"
         transform="translate(-496.93401,-421.75431)"
         id="path212" />
    </clipPath>
    <clipPath
       clipPathUnits="userSpaceOnUse"
       id="clipPath214">
      <path
         d="m 254.711,391.018 h 258.102 v 48.321 H 254.711 Z"
         transform="translate(-508.01632,-415.72251)"
         id="path214" />
    </clipPath>
    <clipPath
       clipPathUnits="userSpaceOnUse"
       id="clipPath216">
      <path
         d="m 254.711,391.018 h 258.102 v 48.321 H 254.711 Z"
         transform="translate(-320.29071,-400.00701)"
         id="path216" />
    </clipPath>
    <clipPath
       clipPathUnits="userSpaceOnUse"
       id="clipPath218">
      <path
         d="m 254.711,391.018 h 258.102 v 48.321 H 254.711 Z"
         id="path218" />
    </clipPath>
    <clipPath
       clipPathUnits="userSpaceOnUse"
       id="clipPath220">
      <path
         d="m 254.711,391.018 h 258.102 v 48.321 H 254.711 Z"
         transform="translate(-337.60421,-398.64441)"
         id="path220" />
    </clipPath>
    <clipPath
       clipPathUnits="userSpaceOnUse"
       id="clipPath222">
      <path
         d="m 254.711,391.018 h 258.102 v 48.321 H 254.711 Z"
         transform="translate(-351.33921,-406.72921)"
         id="path222" />
    </clipPath>
    <clipPath
       clipPathUnits="userSpaceOnUse"
       id="clipPath224">
      <path
         d="m 254.711,391.018 h 258.102 v 48.321 H 254.711 Z"
         transform="translate(-358.86081,-402.29621)"
         id="path224" />
    </clipPath>
    <clipPath
       clipPathUnits="userSpaceOnUse"
       id="clipPath226">
      <path
         d="m 254.711,391.018 h 258.102 v 48.321 H 254.711 Z"
         transform="translate(-365.07391,-398.64441)"
         id="path226" />
    </clipPath>
    <clipPath
       clipPathUnits="userSpaceOnUse"
       id="clipPath228">
      <path
         d="m 254.711,391.018 h 258.102 v 48.321 H 254.711 Z"
         transform="translate(-372.01371,-398.64441)"
         id="path228" />
    </clipPath>
    <clipPath
       clipPathUnits="userSpaceOnUse"
       id="clipPath230">
      <path
         d="m 254.711,391.018 h 258.102 v 48.321 H 254.711 Z"
         transform="translate(-390.23631,-400.00701)"
         id="path230" />
    </clipPath>
    <clipPath
       clipPathUnits="userSpaceOnUse"
       id="clipPath232">
      <path
         d="m 254.711,391.018 h 258.102 v 48.321 H 254.711 Z"
         transform="translate(-402.19101,-400.31581)"
         id="path232" />
    </clipPath>
    <clipPath
       clipPathUnits="userSpaceOnUse"
       id="clipPath234">
      <path
         d="m 254.711,391.018 h 258.102 v 48.321 H 254.711 Z"
         id="path234" />
    </clipPath>
    <clipPath
       clipPathUnits="userSpaceOnUse"
       id="clipPath236">
      <path
         d="m 254.711,391.018 h 258.102 v 48.321 H 254.711 Z"
         transform="translate(-410.49301,-401.40611)"
         id="path236" />
    </clipPath>
    <clipPath
       clipPathUnits="userSpaceOnUse"
       id="clipPath238">
      <path
         d="m 254.711,391.018 h 258.102 v 48.321 H 254.711 Z"
         transform="translate(-421.57541,-395.37431)"
         id="path238" />
    </clipPath>
  </defs>
  <g
     inkscape:label="Vrstva 1"
     inkscape:groupmode="layer"
     id="layer1"
     transform="translate(-77.522916,-88.9)">
    <g
       id="g168"
       transform="matrix(0.26458333,0,0,0.26458333,-12.333459,33.88868)">
      <g
         id="group-MC2">
        <path
           id="path169"
           d="m 0,0 c 0,-7.713 -6.275,-13.987 -13.987,-13.987 h -15.26 c -7.712,0 -13.987,6.274 -13.987,13.987 v 13.987 h 12.716 V -1.271 h 17.802 V 13.987 H 0 Z M -43.234,29.247 H 0.001 V 16.531 h -15.26 V 1.271 h -12.716 v 15.26 H -43.234 Z M 2.544,31.79 H -45.778 V 0 c 0,-9.115 7.416,-16.531 16.531,-16.531 h 15.26 c 9.115,0 16.53,7.416 16.53,16.531 z"
           style="fill:#fab20b;fill-opacity:1;fill-rule:nonzero;stroke:none"
           transform="matrix(1.3333333,0,0,-1.3333333,400.65093,250.30347)"
           clip-path="url(#clipPath170)" />
        <path
           id="path171"
           d="M 0,0 H -5.923 V -5.341 H -8.03 V 7.376 H 0.4 V 5.541 H -5.923 V 1.817 H 0 Z"
           style="fill:#fab20b;fill-opacity:1;fill-rule:nonzero;stroke:none"
           transform="matrix(1.3333333,0,0,-1.3333333,433.6672,227.92267)"
           clip-path="url(#clipPath172)" />
        <path
           id="path173"
           d="M 0,0 C 0.787,0 1.372,0.187 1.753,0.563 2.135,0.938 2.326,1.447 2.326,2.089 V 2.798 H 0 c -1.175,0 -1.762,-0.46 -1.762,-1.381 C -1.762,0.472 -1.175,0 0,0 m 2.544,-1.363 -0.091,1.054 c -0.497,-0.835 -1.496,-1.254 -2.998,-1.254 -1.138,0 -1.965,0.264 -2.48,0.791 -0.515,0.527 -0.772,1.232 -0.772,2.116 0,1.95 1.163,2.925 3.488,2.925 h 2.635 v 0.727 c 0,1.284 -0.655,1.926 -1.962,1.926 -0.642,0 -1.136,-0.125 -1.481,-0.373 C -1.462,6.301 -1.635,5.977 -1.635,5.578 V 5.432 h -1.89 v 0.146 c 0,0.847 0.33,1.547 0.99,2.098 0.661,0.551 1.645,0.826 2.953,0.826 2.604,0 3.906,-1.192 3.906,-3.578 v -6.287 z"
           style="fill:#fab20b;fill-opacity:1;fill-rule:nonzero;stroke:none"
           transform="matrix(1.3333333,0,0,-1.3333333,440.81387,233.22773)"
           clip-path="url(#clipPath174)" />
        <path
           id="path175"
           d="M 0,0 V -2.762 H -1.998 V 10.501 H 0 V 2.602 L 3.87,6.904 H 6.25 L 2.574,2.843 6.486,-2.762 H 4.124 L 1.253,1.383 Z"
           style="fill:#fab20b;fill-opacity:1;fill-rule:nonzero;stroke:none"
           transform="matrix(1.3333333,0,0,-1.3333333,452.51373,231.36227)"
           clip-path="url(#clipPath176)" />
        <path
           id="path177"
           d="M 0,0 -0.109,1.272 C -0.703,0.291 -1.69,-0.2 -3.071,-0.2 c -1.053,0 -1.883,0.318 -2.488,0.954 -0.606,0.636 -0.909,1.468 -0.909,2.498 v 6.414 h 1.999 V 3.724 c 0,-1.429 0.672,-2.143 2.016,-2.143 1.478,0 2.217,0.854 2.217,2.561 V 9.666 H 1.78 V 0 Z"
           style="fill:#fab20b;fill-opacity:1;fill-rule:nonzero;stroke:none"
           transform="matrix(1.3333333,0,0,-1.3333333,471.43267,235.04453)"
           clip-path="url(#clipPath178)" />
        <path
           id="path179"
           d="m 359.933,418.992 h -2.017 v 13.263 h 2.017 z"
           style="fill:#fab20b;fill-opacity:1;fill-rule:nonzero;stroke:none"
           transform="matrix(1.3333333,0,0,-1.3333333,0,793.70133)"
           clip-path="url(#clipPath180)" />
        <path
           id="path181"
           d="m 0,0 v -1.671 h -1.254 c -1.332,0 -2.25,0.269 -2.752,0.808 -0.503,0.539 -0.754,1.305 -0.754,2.298 v 4.978 h -1.327 v 1.545 h 1.327 v 2.47 h 2.016 v -2.47 h 2.49 V 6.413 h -2.49 v -4.85 c 0,-0.546 0.131,-0.943 0.391,-1.19 C -2.093,0.124 -1.623,0 -0.945,0 Z"
           style="fill:#fab20b;fill-opacity:1;fill-rule:nonzero;stroke:none"
           transform="matrix(1.3333333,0,0,-1.3333333,490.30253,232.816)"
           clip-path="url(#clipPath182)" />
        <path
           id="path183"
           d="M 0,0 C 0.787,0 1.372,0.187 1.753,0.563 2.135,0.938 2.326,1.447 2.326,2.089 V 2.798 H 0 c -1.175,0 -1.762,-0.46 -1.762,-1.381 C -1.762,0.472 -1.175,0 0,0 m 2.544,-1.363 -0.091,1.054 c -0.497,-0.835 -1.496,-1.254 -2.998,-1.254 -1.138,0 -1.965,0.264 -2.48,0.791 -0.515,0.527 -0.772,1.232 -0.772,2.116 0,1.95 1.163,2.925 3.488,2.925 h 2.635 v 0.727 c 0,1.284 -0.655,1.926 -1.962,1.926 -0.643,0 -1.136,-0.125 -1.481,-0.373 C -1.462,6.301 -1.635,5.977 -1.635,5.578 V 5.432 h -1.89 v 0.146 c 0,0.847 0.33,1.547 0.99,2.098 0.661,0.551 1.645,0.826 2.953,0.826 2.604,0 3.906,-1.192 3.906,-3.578 v -6.287 z"
           style="fill:#fab20b;fill-opacity:1;fill-rule:nonzero;stroke:none"
           transform="matrix(1.3333333,0,0,-1.3333333,496.93933,233.22773)"
           clip-path="url(#clipPath184)" />
        <path
           id="path185"
           d="M 0,0 V -0.545 H 4.324 V 0 c 0,0.569 -0.173,1.054 -0.518,1.453 -0.345,0.4 -0.893,0.6 -1.644,0.6 -0.763,0 -1.314,-0.2 -1.653,-0.6 C 0.17,1.054 0,0.569 0,0 M 6.177,-3.489 C 6.177,-3.851 6.12,-4.194 6.004,-4.515 5.889,-4.836 5.696,-5.151 5.423,-5.46 5.151,-5.769 4.739,-6.017 4.188,-6.205 3.636,-6.392 2.973,-6.486 2.198,-6.486 c -0.787,0 -1.465,0.109 -2.034,0.327 -0.57,0.218 -1.003,0.518 -1.299,0.899 -0.297,0.382 -0.512,0.784 -0.645,1.208 -0.134,0.424 -0.2,0.885 -0.2,1.381 v 2.38 c 0,1.066 0.33,1.977 0.99,2.735 0.66,0.756 1.717,1.135 3.17,1.135 0.739,0 1.384,-0.112 1.935,-0.336 C 4.666,3.018 5.09,2.713 5.387,2.325 5.683,1.938 5.901,1.526 6.041,1.09 6.18,0.654 6.25,0.193 6.25,-0.291 V -2.017 H 0 v -0.854 c 0,-0.593 0.173,-1.087 0.518,-1.48 0.345,-0.394 0.905,-0.591 1.68,-0.591 0.751,0 1.291,0.149 1.618,0.445 0.326,0.297 0.49,0.651 0.49,1.063 v 0.146 h 1.871 z"
           style="fill:#fab20b;fill-opacity:1;fill-rule:nonzero;stroke:none"
           transform="matrix(1.3333333,0,0,-1.3333333,513.43533,226.6628)"
           clip-path="url(#clipPath186)" />
        <path
           id="path187"
           d="m 395.505,418.992 h -2.017 v 13.263 h 2.017 z"
           style="fill:#fab20b;fill-opacity:1;fill-rule:nonzero;stroke:none"
           transform="matrix(1.3333333,0,0,-1.3333333,0,793.70133)"
           clip-path="url(#clipPath188)" />
        <path
           id="path189"
           d="M 0,0 V -0.545 H 4.324 V 0 c 0,0.569 -0.173,1.054 -0.518,1.453 -0.345,0.4 -0.893,0.6 -1.644,0.6 -0.763,0 -1.314,-0.2 -1.653,-0.6 C 0.17,1.054 0,0.569 0,0 M 6.177,-3.489 C 6.177,-3.851 6.12,-4.194 6.004,-4.515 5.889,-4.836 5.696,-5.151 5.423,-5.46 5.151,-5.769 4.739,-6.017 4.188,-6.205 3.636,-6.392 2.973,-6.486 2.198,-6.486 c -0.787,0 -1.465,0.109 -2.034,0.327 -0.57,0.218 -1.003,0.518 -1.299,0.899 -0.297,0.382 -0.512,0.784 -0.645,1.208 -0.134,0.424 -0.2,0.885 -0.2,1.381 v 2.38 c 0,1.066 0.33,1.977 0.99,2.735 0.66,0.756 1.717,1.135 3.17,1.135 0.739,0 1.384,-0.112 1.935,-0.336 C 4.666,3.018 5.09,2.713 5.387,2.325 5.683,1.938 5.901,1.526 6.041,1.09 6.18,0.654 6.25,0.193 6.25,-0.291 V -2.017 H 0 v -0.854 c 0,-0.593 0.173,-1.087 0.518,-1.48 0.345,-0.394 0.905,-0.591 1.68,-0.591 0.751,0 1.291,0.149 1.618,0.445 0.326,0.297 0.49,0.651 0.49,1.063 v 0.146 h 1.871 z"
           style="fill:#fab20b;fill-opacity:1;fill-rule:nonzero;stroke:none"
           transform="matrix(1.3333333,0,0,-1.3333333,532.95933,226.6628)"
           clip-path="url(#clipPath190)" />
        <path
           id="path191"
           d="M 0,0 V -2.762 H -1.998 V 10.501 H 0 V 2.602 L 3.87,6.904 H 6.25 L 2.574,2.843 6.486,-2.762 H 4.124 L 1.253,1.383 Z"
           style="fill:#fab20b;fill-opacity:1;fill-rule:nonzero;stroke:none"
           transform="matrix(1.3333333,0,0,-1.3333333,546.81533,231.36227)"
           clip-path="url(#clipPath192)" />
        <path
           id="path193"
           d="m 0,0 v -1.671 h -1.254 c -1.332,0 -2.25,0.269 -2.752,0.808 -0.503,0.539 -0.754,1.305 -0.754,2.298 v 4.978 h -1.327 v 1.545 h 1.327 v 2.47 h 2.016 v -2.47 h 2.49 V 6.413 h -2.49 v -4.85 c 0,-0.546 0.131,-0.943 0.391,-1.19 C -2.093,0.124 -1.623,0 -0.945,0 Z"
           style="fill:#fab20b;fill-opacity:1;fill-rule:nonzero;stroke:none"
           transform="matrix(1.3333333,0,0,-1.3333333,564.208,232.816)"
           clip-path="url(#clipPath194)" />
        <path
           id="path195"
           d="m 0,0 h -1.998 v 9.666 h 1.78 L -0.091,8.103 C 0.515,9.254 1.653,9.829 3.325,9.829 V 7.903 H 2.943 C 1.926,7.903 1.181,7.649 0.709,7.14 0.236,6.632 0,5.935 0,5.051 Z"
           style="fill:#fab20b;fill-opacity:1;fill-rule:nonzero;stroke:none"
           transform="matrix(1.3333333,0,0,-1.3333333,569.14907,235.04453)"
           clip-path="url(#clipPath196)" />
        <path
           id="path197"
           d="M 0,0 V 2.362 C 0,2.968 -0.176,3.485 -0.527,3.915 -0.878,4.345 -1.447,4.56 -2.235,4.56 -3.01,4.56 -3.573,4.345 -3.925,3.915 -4.276,3.485 -4.451,2.968 -4.451,2.362 V 0 c 0,-0.618 0.175,-1.142 0.526,-1.572 0.352,-0.429 0.915,-0.645 1.69,-0.645 0.788,0 1.357,0.216 1.708,0.645 C -0.176,-1.142 0,-0.618 0,0 m -6.45,0.018 v 2.325 c 0,1.066 0.333,1.978 0.999,2.735 0.666,0.757 1.738,1.135 3.216,1.135 0.788,0 1.466,-0.112 2.035,-0.336 C 0.369,5.653 0.809,5.347 1.117,4.96 1.426,4.572 1.65,4.163 1.789,3.733 1.929,3.303 1.998,2.84 1.998,2.343 V 0.018 C 1.998,-0.479 1.929,-0.945 1.789,-1.381 1.65,-1.817 1.426,-2.226 1.117,-2.607 0.809,-2.989 0.369,-3.292 -0.2,-3.516 c -0.569,-0.223 -1.247,-0.335 -2.035,-0.335 -0.775,0 -1.447,0.112 -2.017,0.335 -0.569,0.224 -1.008,0.527 -1.317,0.909 -0.308,0.381 -0.533,0.79 -0.672,1.226 -0.139,0.436 -0.209,0.902 -0.209,1.399"
           style="fill:#fab20b;fill-opacity:1;fill-rule:nonzero;stroke:none"
           transform="matrix(1.3333333,0,0,-1.3333333,583.6348,230.17547)"
           clip-path="url(#clipPath198)" />
        <path
           id="path199"
           d="m 0,0 v -1.671 h -1.254 c -1.332,0 -2.25,0.269 -2.752,0.808 -0.503,0.539 -0.754,1.305 -0.754,2.298 v 4.978 h -1.326 v 1.545 h 1.326 v 2.47 h 2.016 v -2.47 h 2.49 V 6.413 h -2.49 v -4.85 c 0,-0.546 0.131,-0.943 0.391,-1.19 C -2.093,0.124 -1.623,0 -0.945,0 Z"
           style="fill:#fab20b;fill-opacity:1;fill-rule:nonzero;stroke:none"
           transform="matrix(1.3333333,0,0,-1.3333333,596.1104,232.816)"
           clip-path="url(#clipPath200)" />
        <path
           id="path201"
           d="M 0,0 V -0.545 H 4.324 V 0 c 0,0.569 -0.173,1.054 -0.518,1.453 -0.345,0.4 -0.893,0.6 -1.644,0.6 -0.763,0 -1.314,-0.2 -1.653,-0.6 C 0.17,1.054 0,0.569 0,0 M 6.177,-3.489 C 6.177,-3.851 6.119,-4.194 6.004,-4.515 5.889,-4.836 5.696,-5.151 5.423,-5.46 5.151,-5.769 4.739,-6.017 4.188,-6.205 3.636,-6.392 2.973,-6.486 2.198,-6.486 c -0.787,0 -1.465,0.109 -2.034,0.327 -0.57,0.218 -1.003,0.518 -1.299,0.899 -0.297,0.382 -0.512,0.784 -0.645,1.208 -0.134,0.424 -0.2,0.885 -0.2,1.381 v 2.38 c 0,1.066 0.33,1.977 0.99,2.735 0.66,0.756 1.717,1.135 3.17,1.135 0.739,0 1.384,-0.112 1.935,-0.336 C 4.666,3.018 5.09,2.713 5.387,2.325 5.683,1.938 5.901,1.526 6.041,1.09 6.18,0.654 6.25,0.193 6.25,-0.291 V -2.017 H 0 v -0.854 c 0,-0.593 0.173,-1.087 0.518,-1.48 0.345,-0.394 0.905,-0.591 1.68,-0.591 0.751,0 1.291,0.149 1.618,0.445 0.326,0.297 0.49,0.651 0.49,1.063 v 0.146 h 1.871 z"
           style="fill:#fab20b;fill-opacity:1;fill-rule:nonzero;stroke:none"
           transform="matrix(1.3333333,0,0,-1.3333333,600.494,226.6628)"
           clip-path="url(#clipPath202)" />
        <path
           id="path203"
           d="m 0,0 h 1.98 v -0.182 c 0,-0.957 -0.33,-1.78 -0.99,-2.47 -0.66,-0.691 -1.669,-1.036 -3.025,-1.036 -0.763,0 -1.429,0.112 -1.998,0.336 -0.57,0.224 -1.009,0.527 -1.317,0.908 -0.309,0.382 -0.534,0.791 -0.673,1.227 -0.139,0.436 -0.209,0.902 -0.209,1.399 v 2.325 c 0,0.497 0.07,0.96 0.209,1.39 0.139,0.43 0.364,0.839 0.673,1.226 0.308,0.388 0.747,0.694 1.317,0.918 0.569,0.224 1.235,0.336 1.998,0.336 1.393,0 2.407,-0.345 3.043,-1.036 0.636,-0.69 0.954,-1.514 0.954,-2.47 V 2.689 H 0 v 0.2 c 0,0.508 -0.164,0.942 -0.491,1.299 -0.327,0.357 -0.842,0.536 -1.544,0.536 -0.763,0 -1.32,-0.215 -1.671,-0.645 C -4.058,3.649 -4.233,3.131 -4.233,2.525 V 0.182 c 0,-0.606 0.175,-1.124 0.527,-1.554 0.351,-0.43 0.908,-0.645 1.671,-0.645 0.702,0 1.217,0.179 1.544,0.536 C -0.164,-1.124 0,-0.69 0,-0.182 Z"
           style="fill:#fab20b;fill-opacity:1;fill-rule:nonzero;stroke:none"
           transform="matrix(1.3333333,0,0,-1.3333333,619.55813,230.3936)"
           clip-path="url(#clipPath204)" />
        <path
           id="path205"
           d="M 0,0 H -1.998 V 13.263 H 0 V 8.539 C 0.606,9.423 1.574,9.865 2.907,9.865 3.997,9.865 4.848,9.526 5.46,8.848 6.071,8.169 6.377,7.279 6.377,6.177 V 0 H 4.36 v 5.705 c 0,1.586 -0.69,2.38 -2.071,2.38 C 1.477,8.085 0.893,7.849 0.536,7.376 0.179,6.904 0,6.286 0,5.523 Z"
           style="fill:#fab20b;fill-opacity:1;fill-rule:nonzero;stroke:none"
           transform="matrix(1.3333333,0,0,-1.3333333,627.57587,235.04453)"
           clip-path="url(#clipPath206)" />
        <path
           id="path207"
           d="m 0,0 h -1.998 v 9.666 h 1.78 L -0.109,8.357 C 0.472,9.363 1.477,9.865 2.907,9.865 3.997,9.865 4.848,9.526 5.46,8.848 6.071,8.169 6.377,7.279 6.377,6.177 V 0 H 4.36 v 5.705 c 0,1.586 -0.69,2.38 -2.071,2.38 C 1.477,8.085 0.893,7.849 0.536,7.376 0.179,6.904 0,6.286 0,5.523 Z"
           style="fill:#fab20b;fill-opacity:1;fill-rule:nonzero;stroke:none"
           transform="matrix(1.3333333,0,0,-1.3333333,642.01307,235.04453)"
           clip-path="url(#clipPath208)" />
        <path
           id="path209"
           d="m 492.374,418.992 h -2.017 v 9.666 h 2.017 z m 0.018,11.319 h -2.053 v 1.944 h 2.053 z"
           style="fill:#fab20b;fill-opacity:1;fill-rule:nonzero;stroke:none"
           transform="matrix(1.3333333,0,0,-1.3333333,0,793.70133)"
           clip-path="url(#clipPath210)" />
        <path
           id="path211"
           d="M 0,0 V -2.762 H -1.998 V 10.501 H 0 V 2.602 L 3.87,6.904 H 6.25 L 2.574,2.843 6.486,-2.762 H 4.124 L 1.253,1.383 Z"
           style="fill:#fab20b;fill-opacity:1;fill-rule:nonzero;stroke:none"
           transform="matrix(1.3333333,0,0,-1.3333333,662.57867,231.36227)"
           clip-path="url(#clipPath212)" />
        <path
           id="path213"
           d="m 0,0 -1.907,-0.017 1.209,3.328 -3.481,9.625 h 2.126 L 0.27,5.977 2.798,12.936 h 1.998 z"
           style="fill:#fab20b;fill-opacity:1;fill-rule:nonzero;stroke:none"
           transform="matrix(1.3333333,0,0,-1.3333333,677.35507,239.40467)"
           clip-path="url(#clipPath214)" />
        <path
           id="path215"
           d="M 0,0 C 0.787,0 1.372,0.187 1.753,0.563 2.135,0.938 2.326,1.447 2.326,2.089 V 2.798 H 0 c -1.175,0 -1.762,-0.46 -1.762,-1.381 C -1.762,0.472 -1.175,0 0,0 m 2.544,-1.363 -0.091,1.054 c -0.497,-0.835 -1.496,-1.254 -2.998,-1.254 -1.138,0 -1.965,0.264 -2.48,0.791 -0.515,0.527 -0.772,1.232 -0.772,2.116 0,1.95 1.163,2.925 3.488,2.925 h 2.635 v 0.727 c 0,1.284 -0.655,1.926 -1.962,1.926 -0.642,0 -1.136,-0.125 -1.481,-0.373 C -1.462,6.301 -1.635,5.977 -1.635,5.578 V 5.432 h -1.89 v 0.146 c 0,0.847 0.33,1.547 0.99,2.098 0.661,0.551 1.645,0.826 2.953,0.826 2.604,0 3.906,-1.192 3.906,-3.578 v -6.287 z"
           style="fill:#fab20b;fill-opacity:1;fill-rule:nonzero;stroke:none"
           transform="matrix(1.3333333,0,0,-1.3333333,427.05427,260.35867)"
           clip-path="url(#clipPath216)" />
        <path
           id="path217"
           d="m 333.044,398.644 h -2.017 v 9.666 h 2.017 z m 0.019,11.319 h -2.053 v 1.944 h 2.053 z"
           style="fill:#fab20b;fill-opacity:1;fill-rule:nonzero;stroke:none"
           transform="matrix(1.3333333,0,0,-1.3333333,0,793.70133)"
           clip-path="url(#clipPath218)" />
        <path
           id="path219"
           d="m 0,0 h -1.998 v 9.666 h 1.78 L -0.109,8.357 C 0.472,9.363 1.477,9.865 2.907,9.865 3.997,9.865 4.848,9.526 5.46,8.848 6.071,8.169 6.377,7.279 6.377,6.177 V 0 H 4.36 v 5.705 c 0,1.586 -0.69,2.38 -2.071,2.38 C 1.477,8.085 0.893,7.849 0.536,7.376 0.179,6.904 0,6.286 0,5.523 Z"
           style="fill:#fab20b;fill-opacity:1;fill-rule:nonzero;stroke:none"
           transform="matrix(1.3333333,0,0,-1.3333333,450.13893,262.17547)"
           clip-path="url(#clipPath220)" />
        <path
           id="path221"
           d="M 0,0 H -2.453 V -8.085 H -4.469 V 0 h -1.29 v 1.544 h 1.29 v 0.291 c 0,2.228 1.308,3.343 3.924,3.343 H 0.236 V 3.597 h -0.872 c -1.211,0 -1.817,-0.557 -1.817,-1.671 V 1.544 H 0 Z"
           style="fill:#fab20b;fill-opacity:1;fill-rule:nonzero;stroke:none"
           transform="matrix(1.3333333,0,0,-1.3333333,468.45227,251.39573)"
           clip-path="url(#clipPath222)" />
        <path
           id="path223"
           d="M 0,0 V 2.362 C 0,2.968 -0.176,3.485 -0.527,3.915 -0.878,4.345 -1.447,4.56 -2.235,4.56 -3.01,4.56 -3.573,4.345 -3.925,3.915 -4.276,3.485 -4.451,2.968 -4.451,2.362 V 0 c 0,-0.618 0.175,-1.142 0.526,-1.572 0.352,-0.429 0.915,-0.645 1.69,-0.645 0.788,0 1.357,0.216 1.708,0.645 C -0.176,-1.142 0,-0.618 0,0 m -6.45,0.018 v 2.325 c 0,1.066 0.333,1.978 0.999,2.735 0.667,0.757 1.738,1.135 3.216,1.135 0.788,0 1.466,-0.112 2.035,-0.336 C 0.369,5.653 0.809,5.347 1.117,4.96 1.426,4.572 1.65,4.163 1.789,3.733 1.929,3.303 1.998,2.84 1.998,2.343 V 0.018 C 1.998,-0.479 1.929,-0.945 1.789,-1.381 1.65,-1.817 1.426,-2.226 1.117,-2.607 0.809,-2.989 0.369,-3.292 -0.2,-3.516 c -0.569,-0.223 -1.247,-0.335 -2.035,-0.335 -0.775,0 -1.447,0.112 -2.017,0.335 -0.569,0.224 -1.008,0.527 -1.317,0.909 -0.308,0.381 -0.533,0.79 -0.672,1.226 -0.139,0.436 -0.209,0.902 -0.209,1.399"
           style="fill:#fab20b;fill-opacity:1;fill-rule:nonzero;stroke:none"
           transform="matrix(1.3333333,0,0,-1.3333333,478.48107,257.3064)"
           clip-path="url(#clipPath224)" />
        <path
           id="path225"
           d="m 0,0 h -1.998 v 9.666 h 1.78 L -0.091,8.103 C 0.515,9.254 1.653,9.829 3.325,9.829 V 7.903 H 2.943 C 1.926,7.903 1.181,7.649 0.709,7.14 0.236,6.632 0,5.935 0,5.051 Z"
           style="fill:#fab20b;fill-opacity:1;fill-rule:nonzero;stroke:none"
           transform="matrix(1.3333333,0,0,-1.3333333,486.7652,262.17547)"
           clip-path="url(#clipPath226)" />
        <path
           id="path227"
           d="m 0,0 h -1.998 v 9.666 h 1.78 l 0.109,-1.291 c 0.569,0.993 1.551,1.49 2.943,1.49 1.478,0 2.489,-0.605 3.035,-1.817 0.241,0.57 0.644,1.015 1.208,1.335 0.563,0.322 1.238,0.482 2.025,0.482 1.078,0 1.914,-0.336 2.508,-1.008 0.593,-0.672 0.89,-1.566 0.89,-2.68 V 0 h -1.999 v 5.705 c 0,1.586 -0.672,2.38 -2.017,2.38 C 6.995,8.085 6.25,7.231 6.25,5.523 V 0 H 4.252 v 5.705 c 0,1.586 -0.673,2.38 -2.017,2.38 C 0.745,8.085 0,7.231 0,5.523 Z"
           style="fill:#fab20b;fill-opacity:1;fill-rule:nonzero;stroke:none"
           transform="matrix(1.3333333,0,0,-1.3333333,496.01827,262.17547)"
           clip-path="url(#clipPath228)" />
        <path
           id="path229"
           d="M 0,0 C 0.787,0 1.372,0.187 1.753,0.563 2.135,0.938 2.326,1.447 2.326,2.089 V 2.798 H 0 c -1.175,0 -1.762,-0.46 -1.762,-1.381 C -1.762,0.472 -1.175,0 0,0 m 2.544,-1.363 -0.091,1.054 c -0.497,-0.835 -1.496,-1.254 -2.998,-1.254 -1.138,0 -1.965,0.264 -2.48,0.791 -0.515,0.527 -0.772,1.232 -0.772,2.116 0,1.95 1.163,2.925 3.488,2.925 h 2.635 v 0.727 c 0,1.284 -0.655,1.926 -1.962,1.926 -0.643,0 -1.136,-0.125 -1.481,-0.373 C -1.462,6.301 -1.635,5.977 -1.635,5.578 V 5.432 h -1.89 v 0.146 c 0,0.847 0.33,1.547 0.99,2.098 0.661,0.551 1.645,0.826 2.953,0.826 2.604,0 3.906,-1.192 3.906,-3.578 v -6.287 z"
           style="fill:#fab20b;fill-opacity:1;fill-rule:nonzero;stroke:none"
           transform="matrix(1.3333333,0,0,-1.3333333,520.31507,260.35867)"
           clip-path="url(#clipPath230)" />
        <path
           id="path231"
           d="m 0,0 v -1.671 h -1.254 c -1.332,0 -2.25,0.269 -2.752,0.808 -0.503,0.539 -0.754,1.305 -0.754,2.298 v 4.978 h -1.327 v 1.545 h 1.327 v 2.47 h 2.016 v -2.47 h 2.49 V 6.413 h -2.49 v -4.85 c 0,-0.546 0.131,-0.943 0.391,-1.19 C -2.093,0.124 -1.623,0 -0.945,0 Z"
           style="fill:#fab20b;fill-opacity:1;fill-rule:nonzero;stroke:none"
           transform="matrix(1.3333333,0,0,-1.3333333,536.25467,259.94693)"
           clip-path="url(#clipPath232)" />
        <path
           id="path233"
           d="m 405.933,398.644 h -2.017 v 9.666 h 2.017 z m 0.018,11.319 h -2.053 v 1.944 h 2.053 z"
           style="fill:#fab20b;fill-opacity:1;fill-rule:nonzero;stroke:none"
           transform="matrix(1.3333333,0,0,-1.3333333,0,793.70133)"
           clip-path="url(#clipPath234)" />
        <path
           id="path235"
           d="M 0,0 V -2.762 H -1.998 V 10.501 H 0 V 2.602 L 3.87,6.904 H 6.25 L 2.574,2.843 6.486,-2.762 H 4.124 L 1.253,1.383 Z"
           style="fill:#fab20b;fill-opacity:1;fill-rule:nonzero;stroke:none"
           transform="matrix(1.3333333,0,0,-1.3333333,547.324,258.4932)"
           clip-path="url(#clipPath236)" />
        <path
           id="path237"
           d="m 0,0 -1.907,-0.017 1.209,3.328 -3.481,9.625 h 2.126 L 0.27,5.977 2.798,12.936 h 1.998 z"
           style="fill:#fab20b;fill-opacity:1;fill-rule:nonzero;stroke:none"
           transform="matrix(1.3333333,0,0,-1.3333333,562.10053,266.5356)"
           clip-path="url(#clipPath238)" />
      </g>
    </g>
  </g>
</svg>
